<?xml version="1.0" encoding="UTF-8" standalone="no"?>
<svg width="8065px" height="8065px" viewBox="0 0 8065 8065" version="1.1" xmlns="http://www.w3.org/2000/svg" xmlns:xlink="http://www.w3.org/1999/xlink">
    <!-- Generator: Sketch 43.2 (39069) - http://www.bohemiancoding.com/sketch -->
    <title>noun_1405624_cc</title>
    <desc>Created with Sketch.</desc>
    <defs></defs>
    <g id="Page-1" stroke="none" stroke-width="1" fill="none" fill-rule="evenodd">
        <g id="noun_1405624_cc" fill-rule="nonzero" fill="#88C344">
            <path d="M6884,1182 C5309,-393 2756,-393 1182,1182 C-393,2756 -393,5309 1182,6884 C2756,8458 5309,8458 6884,6884 C8458,5309 8458,2756 6884,1182 Z M3318,6603 C3213,6708 3042,6709 2937,6604 C2183,5856 1430,5107 676,4358 C572,4254 571,4082 675,3977 L1345,3303 C1445,3202 1630,3194 1726,3302 L3122,4690 L6334,1462 C6439,1357 6610,1357 6715,1461 L7390,2131 C7494,2235 7494,2408 7390,2512 L3318,6603 Z" id="Shape"></path>
        </g>
    </g>
</svg>