<svg id="Layer_1" data-name="Layer 1" xmlns="http://www.w3.org/2000/svg" xmlns:xlink="http://www.w3.org/1999/xlink" viewBox="0 0 191.84 240.12"><defs><style>.cls-1{fill:#edbf72;opacity:0.5;}.cls-2{fill:#edae44;}.cls-3{fill:url(#linear-gradient);}.cls-4{fill:url(#linear-gradient-2);}</style><linearGradient id="linear-gradient" x1="94.24" y1="210.9" x2="95" y2="45.32" gradientUnits="userSpaceOnUse"><stop offset="0" stop-color="#edae44" stop-opacity="0.2"/><stop offset="0.1" stop-color="#edbf72" stop-opacity="0.2"/><stop offset="0.92" stop-color="#edbf72" stop-opacity="0.2"/><stop offset="1" stop-color="#edae44" stop-opacity="0.2"/></linearGradient><linearGradient id="linear-gradient-2" x1="94.53" y1="207.09" x2="95.29" y2="41.51" gradientUnits="userSpaceOnUse"><stop offset="0" stop-color="#edae44" stop-opacity="0.2"/><stop offset="0.09" stop-color="#f3c77e" stop-opacity="0.2"/><stop offset="0.23" stop-color="#fff" stop-opacity="0.2"/><stop offset="0.87" stop-color="#fff" stop-opacity="0.2"/><stop offset="0.91" stop-color="#fcf1df" stop-opacity="0.2"/><stop offset="0.97" stop-color="#f3ca85" stop-opacity="0.2"/><stop offset="1" stop-color="#edae44" stop-opacity="0.2"/></linearGradient></defs><title>Artboard 10 copy 5</title><path class="cls-1" d="M185.75,18l-40.83-3.61a2.14,2.14,0,0,0-1.78.7l-8.35,9.28A2.14,2.14,0,0,0,136.27,28l41.91,2.2A8.39,8.39,0,0,0,186.7,24l.93-3.32A2.14,2.14,0,0,0,185.75,18Z"/><path class="cls-2" d="M10.07,9.62h169a4.18,4.18,0,0,1,4.18,4.18V25.92a4.18,4.18,0,0,1-4.39,4.17l-169-8.45a4.18,4.18,0,0,1-4-4.17V13.8A4.18,4.18,0,0,1,10.07,9.62Z"/><path class="cls-1" d="M4.45,221.24l40.83-3.61a2.14,2.14,0,0,1,1.78.7l8.35,9.28a2.14,2.14,0,0,1-1.48,3.57L12,233.37a8.39,8.39,0,0,1-8.51-6.11l-.93-3.32A2.14,2.14,0,0,1,4.45,221.24Z"/><path class="cls-2" d="M180.14,212.84h-169A4.18,4.18,0,0,0,6.93,217v12.12a4.18,4.18,0,0,0,4.39,4.17l169-8.45a4.18,4.18,0,0,0,4-4.17V217A4.18,4.18,0,0,0,180.14,212.84Z"/><rect class="cls-3" x="9.14" y="20.3" width="171.01" height="203.99"/><rect class="cls-4" x="9.43" y="16.48" width="171.01" height="203.99"/></svg>