<svg id="Layer_1" data-name="Layer 1" xmlns="http://www.w3.org/2000/svg" viewBox="0 0 351.05 352.77"><defs><style>.cls-1{fill:#66b1ce;}.cls-2{fill:#fff;}</style></defs><title>logo_hand_hearts</title><circle class="cls-1" cx="211.05" cy="140" r="140"/><text x="62.05" y="-3.5"></text><path class="cls-2" d="M63.6,226c-3.86-13.53-7.68-26.94-11.55-40.55,2.33-.66,4.64-1.3,7-2q20.58-5.94,41.16-11.89c4-1.17,8-2.45,12-3.6a17,17,0,0,1,13.48,1.6Q151.8,184.22,178,198.8c6.82,3.79,5.39,12.47,1.79,16.28a11.21,11.21,0,0,1-14.16,2.18c-6.65-3.68-13.26-7.42-19.89-11.13l-1.65-.88-2,3.72,3.92,2.18c5.76,3.21,11.51,6.46,17.3,9.63,6,3.28,12,3.32,17.57-.77,5-3.62,7-8.74,6.18-14.85-.16-1.2,0-1.65,1.21-2,11.85-3.27,23.7-6.55,35.51-9.93,4.8-1.38,9-.58,12.39,3.07s4,7.89,2.51,12.49a12,12,0,0,1-8.6,8.32q-37.26,10.52-74.49,21.17a29.45,29.45,0,0,1-10.51,1.44,19.77,19.77,0,0,1-8.81-3q-16.87-10.38-33.69-20.83a2.68,2.68,0,0,0-2.39-.32q-17.92,5.14-35.88,10.21Z" transform="translate(62.05 -3.5)"/><path class="cls-2" d="M145.84,96.82a13.56,13.56,0,0,1,23.88,6.75,13.2,13.2,0,0,1-3.88,11.53c-6.34,6.4-12.72,12.75-19.09,19.13a1.18,1.18,0,0,1-1.94,0c-6.51-6.51-13.06-13-19.51-19.57a12.48,12.48,0,0,1-3.56-10.19,13.56,13.56,0,0,1,21.79-9.72A29.1,29.1,0,0,1,145.84,96.82Z" transform="translate(62.05 -3.5)"/><path class="cls-2" d="M195.18,72.08A7,7,0,0,1,197,70.53a7.09,7.09,0,0,1,10.71,5.08,6.91,6.91,0,0,1-2,6c-3.32,3.35-6.66,6.67-10,10a.62.62,0,0,1-1,0c-3.41-3.41-6.84-6.8-10.21-10.24a6.57,6.57,0,0,1-1.87-5.34A7.1,7.1,0,0,1,194,71,13.29,13.29,0,0,1,195.18,72.08Z" transform="translate(62.05 -3.5)"/><path class="cls-2" d="M99.11,67.25a7,7,0,0,1,1.79-1.55,7.1,7.1,0,0,1,10.71,5.08,6.91,6.91,0,0,1-2,6c-3.32,3.35-6.66,6.67-10,10a.62.62,0,0,1-1,0c-3.41-3.41-6.84-6.8-10.22-10.24a6.58,6.58,0,0,1-1.86-5.34,7.1,7.1,0,0,1,11.4-5.08A15.07,15.07,0,0,1,99.11,67.25Z" transform="translate(62.05 -3.5)"/><path class="cls-2" d="M171.8,59.25a3.36,3.36,0,0,1,.85-.74,3.4,3.4,0,0,1,5.13,2.43,3.31,3.31,0,0,1-1,2.89c-1.59,1.6-3.19,3.19-4.79,4.79a.29.29,0,0,1-.48,0c-1.63-1.63-3.27-3.26-4.89-4.9a3.14,3.14,0,0,1-.89-2.56,3.4,3.4,0,0,1,5.46-2.43C171.42,58.88,171.6,59.07,171.8,59.25Z" transform="translate(62.05 -3.5)"/><path class="cls-2" d="M221.14,53.09a5,5,0,0,1,8.77,2.48,4.84,4.84,0,0,1-1.42,4.24c-2.33,2.35-4.68,4.68-7,7a.43.43,0,0,1-.71,0c-2.39-2.39-4.8-4.77-7.17-7.19a4.57,4.57,0,0,1-1.3-3.74,4.73,4.73,0,0,1,2.79-4.11,4.79,4.79,0,0,1,5.21.54A9.87,9.87,0,0,1,221.14,53.09Z" transform="translate(62.05 -3.5)"/><path class="cls-2" d="M111.46,134.43a4.69,4.69,0,0,1,1.26-1.08,5,5,0,0,1,7.52,3.56,4.83,4.83,0,0,1-1.43,4.23c-2.33,2.36-4.67,4.69-7,7a.43.43,0,0,1-.71,0c-2.4-2.39-4.8-4.77-7.17-7.19a4.59,4.59,0,0,1-1.31-3.74,5,5,0,0,1,8-3.58A10,10,0,0,1,111.46,134.43Z" transform="translate(62.05 -3.5)"/><path class="cls-2" d="M202.69,137.69a17.18,17.18,0,0,1,30.24,8.56A16.68,16.68,0,0,1,228,160.84c-8,8.1-16.11,16.15-24.17,24.22a1.49,1.49,0,0,1-2.45,0c-8.25-8.25-16.54-16.45-24.71-24.78a15.85,15.85,0,0,1-4.51-12.91,16.38,16.38,0,0,1,9.64-14.15c6.26-3,12.34-2.29,17.95,1.85A38.81,38.81,0,0,1,202.69,137.69Z" transform="translate(62.05 -3.5)"/><polygon class="cls-2" points="223.7 103.42 222.26 102.03 253.49 75.99 254.93 77.37 223.7 103.42"/><rect class="cls-2" x="174.12" y="95.04" width="3.37" height="76.09" transform="translate(24.86 186.61) rotate(-52.12)"/><polygon class="cls-2" points="165.07 73.16 163.16 74.52 199.71 101.36 201.61 100.01 165.07 73.16"/><polygon class="cls-2" points="259.94 80.5 235.83 61.3 236.46 60.67 260.57 79.87 259.94 80.5"/><rect class="cls-2" x="192.33" y="69.3" width="33.61" height="1.12" transform="translate(64.48 143.11) rotate(-38.84)"/><path class="cls-2" d="M113.1,140.18l-.17-.16a.84.84,0,0,1,0-1.26l22.08-18.12a.84.84,0,0,1,1.11,0h0a.85.85,0,0,1,0,1.26l-21.91,18.29A.84.84,0,0,1,113.1,140.18Z" transform="translate(62.05 -3.5)"/></svg>