<svg xmlns="http://www.w3.org/2000/svg" xmlns:xlink="http://www.w3.org/1999/xlink" viewBox="0 0 191.84 240.12"><defs><style>.cls-1,.cls-35,.cls-58,.cls-59,.cls-61,.cls-7{fill:none;}.cls-2{isolation:isolate;}.cls-3{fill:#edbf72;opacity:0.5;}.cls-4{fill:#edae44;}.cls-5{fill:url(#linear-gradient);}.cls-6{fill:url(#linear-gradient-2);}.cls-7{stroke:#edae44;}.cls-35,.cls-58,.cls-59,.cls-7{stroke-miterlimit:10;}.cls-8{fill:#edeef0;}.cls-9{fill:#d1d4d9;}.cls-10{fill:#52516a;}.cls-11{fill:#3e3d50;}.cls-12{fill:#e18031;}.cls-13{fill:#3e415d;}.cls-14{fill:#ac9479;}.cls-15{fill:#3abb9a;}.cls-16{fill:#e8e8e8;}.cls-16,.cls-20,.cls-21,.cls-25{mix-blend-mode:multiply;}.cls-17{fill:#fa6f57;}.cls-18{fill:#9c8cba;}.cls-19{fill:#5bc2a7;}.cls-20{fill:#d9d9d9;}.cls-21{fill:#e0e0e0;}.cls-22{fill:#7b68a7;}.cls-23{fill:#f5ab54;}.cls-24{fill:#f36e53;}.cls-25{fill:#e6e6e6;}.cls-26{fill:#f39c36;}.cls-27{fill:#fff;}.cls-28{fill:#c1b08d;}.cls-29{fill:#2e262a;}.cls-30{fill:#080708;}.cls-31{fill:#d0cdc8;}.cls-32{fill:#f3c61e;}.cls-33{fill:#a67c0b;}.cls-34{clip-path:url(#clip-path);}.cls-35{stroke:#c83203;stroke-width:62.36px;}.cls-36{fill:#5a0000;}.cls-37{fill:#110404;}.cls-38{fill:#050404;}.cls-39{fill:#afaaa4;}.cls-40{fill:#060025;}.cls-41{fill:#170125;}.cls-42{fill:#d30600;}.cls-43{fill:#a09995;}.cls-44{fill:#aca6a1;}.cls-45{fill:#2b0022;}.cls-46{fill:#350037;}.cls-47{fill:#150114;}.cls-48{fill:#163a1c;}.cls-49{fill:#a29c97;}.cls-50{fill:#1f191c;}.cls-51{fill:#dba917;}.cls-52{fill:#cf9e15;}.cls-53{fill:#af830a;}.cls-54{fill:#be9011;}.cls-55{font-size:8.73px;font-family:Helvetica, Helvetica;}.cls-56{fill:#42210b;}.cls-57{fill:#ffd5ab;}.cls-58{stroke:#000;}.cls-58,.cls-59,.cls-61{stroke-linecap:round;}.cls-58,.cls-59{stroke-width:0.25px;}.cls-59{stroke:#c69c6d;}.cls-60{fill:#317eac;}.cls-61{stroke:#317eac;stroke-linejoin:round;stroke-width:10px;stroke-dasharray:0 5.09;}</style><linearGradient id="linear-gradient" x1="94.24" y1="210.9" x2="95" y2="45.32" gradientUnits="userSpaceOnUse"><stop offset="0" stop-color="#edae44" stop-opacity="0.2"/><stop offset="0.1" stop-color="#edbf72" stop-opacity="0.2"/><stop offset="0.92" stop-color="#edbf72" stop-opacity="0.2"/><stop offset="1" stop-color="#edae44" stop-opacity="0.2"/></linearGradient><linearGradient id="linear-gradient-2" x1="94.53" y1="207.09" x2="95.29" y2="41.51" gradientUnits="userSpaceOnUse"><stop offset="0" stop-color="#edae44" stop-opacity="0.2"/><stop offset="0.09" stop-color="#f3c77e" stop-opacity="0.2"/><stop offset="0.23" stop-color="#fff" stop-opacity="0.2"/><stop offset="0.87" stop-color="#fff" stop-opacity="0.2"/><stop offset="0.91" stop-color="#fcf1df" stop-opacity="0.2"/><stop offset="0.97" stop-color="#f3ca85" stop-opacity="0.2"/><stop offset="1" stop-color="#edae44" stop-opacity="0.2"/></linearGradient><clipPath id="clip-path"><path id="_Clipping_Path_" data-name="&lt;Clipping Path&gt;" class="cls-1" d="M48.64,138.78h-3.9a1.21,1.21,0,0,1,0-1.25h3.9a.07.07,0,0,0,0-.14H43.06a1.65,1.65,0,0,0,0,1.54h5.57a.07.07,0,0,0,0-.14Z"/></clipPath></defs><title>Artboard 10 copy 4</title><g class="cls-2"><g id="Layer_1" data-name="Layer 1"><path class="cls-3" d="M185.75,18l-40.83-3.61a2.14,2.14,0,0,0-1.78.7l-8.35,9.28A2.14,2.14,0,0,0,136.27,28l41.91,2.2A8.39,8.39,0,0,0,186.7,24l.93-3.32A2.14,2.14,0,0,0,185.75,18Z"/><path class="cls-4" d="M10.07,9.62h169a4.18,4.18,0,0,1,4.18,4.18V25.92a4.18,4.18,0,0,1-4.39,4.17l-169-8.45a4.18,4.18,0,0,1-4-4.17V13.8A4.18,4.18,0,0,1,10.07,9.62Z"/><path class="cls-3" d="M4.45,221.24l40.83-3.61a2.14,2.14,0,0,1,1.78.7l8.35,9.28a2.14,2.14,0,0,1-1.48,3.57L12,233.37a8.39,8.39,0,0,1-8.51-6.11l-.93-3.32A2.14,2.14,0,0,1,4.45,221.24Z"/><path class="cls-4" d="M180.14,212.84h-169A4.18,4.18,0,0,0,6.93,217v12.12a4.18,4.18,0,0,0,4.39,4.17l169-8.45a4.18,4.18,0,0,0,4-4.17V217A4.18,4.18,0,0,0,180.14,212.84Z"/><rect class="cls-5" x="9.14" y="20.3" width="171.01" height="203.99"/><rect class="cls-6" x="9.43" y="16.48" width="171.01" height="203.99"/><circle class="cls-7" cx="40.76" cy="139.25" r="14.41"/><g id="left"><rect class="cls-8" x="32.82" y="146.28" width="8.95" height="0.52"/><rect class="cls-9" x="32.82" y="146.66" width="8.95" height="0.14"/><rect class="cls-10" x="40.2" y="146.28" width="0.57" height="0.52"/><polygon class="cls-11" points="32.65 144.55 33.32 143.92 41.57 143.92 42.17 144.55 38.89 144.64 35.82 144.73 33.35 144.99 32.65 144.55"/><polygon class="cls-9" points="32.31 142.95 32.37 142.63 41.54 142.63 41.8 143.06 40.14 143.2 37.51 143.07 32.31 142.95"/><path class="cls-12" d="M32.84,141.4v-.46h8.75l.47.46s-1.56.38-1.74.38l-4.07-.19C36.07,141.59,32.84,141.4,32.84,141.4Z"/><polygon class="cls-13" points="33.57 141.44 33.02 140.86 34.84 140.86 34.73 141.13 33.57 141.44"/><polygon class="cls-9" points="33.15 140.36 33.15 140.86 33.66 141.34 33.82 140.53 33.55 140.5 33.15 140.36"/><polygon class="cls-14" points="33.15 140.48 32.66 140 34.09 140 34.06 140.23 33.37 140.4 33.15 140.48"/><polygon class="cls-14" points="33.15 139.36 32.77 139.04 41.5 139.04 41.79 139.36 40.01 139.78 33.15 139.36"/><polyline class="cls-9" points="33.24 140.38 32.86 140 32.86 139.11 33.62 139.32 33.64 139.63 33.31 140.38"/><polygon class="cls-15" points="33.08 139.5 32.55 138.92 34.51 138.92 34.35 139.23 33.48 139.32 33.08 139.5"/><polygon class="cls-9" points="33.35 139.29 33.15 139.36 32.66 138.88 32.66 138.02 33.71 138.56 33.71 138.67 33.35 139.29"/><polygon class="cls-15" points="33.08 138.31 32.57 138 42.08 138 42.5 138.31 41.72 138.52 38.98 138.4 33.08 138.31"/><polygon class="cls-16" points="41.63 146.42 33.05 146.42 33.05 145.73 41.63 145.83 41.63 146.42"/><polygon class="cls-17" points="41.63 146.28 33.05 146.28 33.05 145.66 41.63 145.76 41.63 146.28"/><polygon class="cls-16" points="41.33 146.06 33.06 145.84 32.75 145.15 41.33 145.37 41.33 146.06"/><polygon class="cls-18" points="41.33 145.96 32.75 145.74 32.75 145.05 41.33 145.2 41.33 145.96"/><polygon class="cls-19" points="41.33 145.96 40.1 145.93 40.1 145.24 41.33 145.27 41.33 145.96"/><polygon class="cls-20" points="32.75 145.05 32.75 145.36 40.1 145.48 40.1 145.48 41.33 145.5 41.33 145.2 32.75 145.05"/><rect class="cls-10" x="32.65" y="144.55" width="9.52" height="0.69"/><rect class="cls-19" x="32.52" y="143.29" width="8.52" height="1.15"/><path class="cls-21" d="M32.52,143.34v.44l8.52-.08v-.4H34Z"/><rect class="cls-22" x="34.05" y="143.29" width="0.4" height="1.15"/><rect class="cls-21" x="34.05" y="143.29" width="0.4" height="0.47"/><rect class="cls-23" x="33.45" y="143.29" width="0.73" height="1.15"/><rect class="cls-24" x="34.72" y="143.29" width="0.23" height="1.15"/><path class="cls-21" d="M34.72,143.29v.47h.23v-.46Zm-1.27,0v.46h.73v-.47H34Z"/><path class="cls-8" d="M41.79,143.5a.34.34,0,0,0,0-.2l0-.25-9.5-.1a1.11,1.11,0,0,0,0,.3l0,.25Z"/><rect class="cls-25" x="32.62" y="142.4" width="8.73" height="0.73"/><rect class="cls-17" x="32.62" y="142.3" width="8.73" height="0.73"/><rect class="cls-8" x="39.94" y="142.28" width="1.09" height="0.77"/><polygon class="cls-16" points="41.35 142.59 32.84 142.59 32.84 141.48 42.06 141.48 41.35 142.59"/><rect class="cls-26" x="32.84" y="141.4" width="9.22" height="1.04"/><polygon class="cls-25" points="33.52 141.79 41.73 141.47 40.58 141.4 33.52 141.4 33.52 141.79"/><rect class="cls-27" x="40.99" y="141.7" width="0.69" height="0.44"/><rect class="cls-10" x="33.55" y="140.45" width="8.28" height="1"/><rect class="cls-9" x="40.45" y="140.78" width="0.96" height="0.5"/><polygon class="cls-25" points="41.79 140.64 33.58 140.64 33.15 139.46 41.79 139.46 41.79 140.64"/><rect class="cls-28" x="33.15" y="139.36" width="8.64" height="1.11"/><rect class="cls-21" x="33.15" y="139.36" width="8.64" height="0.32"/><rect class="cls-8" x="34.46" y="139.54" width="0.69" height="0.9"/><rect class="cls-19" x="33.08" y="138.31" width="9.42" height="1.19"/><rect class="cls-27" x="38.6" y="138.31" width="1.58" height="1.19"/><rect class="cls-26" x="37.31" y="138.31" width="1.34" height="1.19"/><rect class="cls-25" x="33.06" y="138.03" width="8.57" height="0.44"/><rect class="cls-22" x="36.51" y="138.31" width="0.33" height="1.19"/><rect class="cls-28" x="33.06" y="137.85" width="8.57" height="0.44"/><rect class="cls-13" x="32.88" y="137.46" width="8.62" height="0.46"/><polygon class="cls-12" points="32.59 136.13 33.44 136.28 34.04 135.86 32.99 135.84 32.59 136.13"/><rect class="cls-22" x="32.13" y="137.08" width="10.15" height="0.5"/><rect class="cls-18" x="33.17" y="136.1" width="8.84" height="1.02"/><rect class="cls-8" x="41.08" y="136.1" width="0.71" height="1.02"/><polygon class="cls-21" points="41.45 136.26 32.63 136.16 32.59 135.68 41.45 135.68 41.45 136.26"/><rect class="cls-26" x="32.59" y="135.61" width="8.86" height="0.52"/></g><g id="_Group_" data-name="&lt;Group&gt;"><polygon id="_Path_" data-name="&lt;Path&gt;" class="cls-29" points="41.89 134.34 45.66 132.8 49.75 134.26 49.75 134.32 45.53 135.15 41.89 134.4 41.89 134.34"/><polygon id="_Path_2" data-name="&lt;Path&gt;" class="cls-30" points="41.89 134.4 45.66 132.86 49.75 134.32 45.53 135.21 41.89 134.4"/><g id="_Group_2" data-name="&lt;Group&gt;"><rect id="_Rectangle_" data-name="&lt;Rectangle&gt;" class="cls-31" x="44.5" y="137.53" width="4.01" height="1.25"/><path id="_Path_3" data-name="&lt;Path&gt;" class="cls-32" d="M48.64,138.78h-3.9a1.21,1.21,0,0,1,0-1.25h3.9a.07.07,0,0,0,0-.14H43.06a1.65,1.65,0,0,0,0,1.54h5.57a.07.07,0,0,0,0-.14Z"/><path id="_Path_4" data-name="&lt;Path&gt;" class="cls-33" d="M48.71,138.85a.07.07,0,0,0-.07-.07h-3.9a1.21,1.21,0,0,1,0-1.25h3.9a.07.07,0,0,0,0-.14h-4.1a1.65,1.65,0,0,0,0,1.54h4.1A.07.07,0,0,0,48.71,138.85Z"/><g id="_Clip_Group_" data-name="&lt;Clip Group&gt;"><g class="cls-34"><path id="_Path_5" data-name="&lt;Path&gt;" class="cls-35" d="M43.51,137.07a1.63,1.63,0,0,0,0,2.15"/></g></g></g><rect id="_Rectangle_2" data-name="&lt;Rectangle&gt;" class="cls-36" x="42.51" y="140.46" width="7.21" height="1" rx="0.5" ry="0.5"/><rect id="_Rectangle_3" data-name="&lt;Rectangle&gt;" class="cls-37" x="42.84" y="140.46" width="0.27" height="1"/><rect id="_Rectangle_4" data-name="&lt;Rectangle&gt;" class="cls-37" x="43.29" y="140.46" width="0.27" height="1"/><rect id="_Rectangle_5" data-name="&lt;Rectangle&gt;" class="cls-37" x="49.03" y="140.46" width="0.27" height="1"/><ellipse id="_Path_6" data-name="&lt;Path&gt;" class="cls-37" cx="48.37" cy="140.95" rx="0.2" ry="0.21"/><g id="_Group_3" data-name="&lt;Group&gt;"><rect id="_Rectangle_6" data-name="&lt;Rectangle&gt;" class="cls-31" x="43.63" y="139.07" width="4.01" height="1.25"/><path id="_Path_7" data-name="&lt;Path&gt;" class="cls-38" d="M47.45,140.38a.07.07,0,0,0-.07-.06H44.18a.36.36,0,0,1-.34-.26,1.22,1.22,0,0,1,0-.72.36.36,0,0,1,.34-.26h3.19a.07.07,0,0,0,.07-.06.07.07,0,0,0-.07-.08H44.06a.46.46,0,0,0-.44.35,1.66,1.66,0,0,0,0,.84.46.46,0,0,0,.44.35h3.32A.07.07,0,0,0,47.45,140.38Z"/><rect id="_Rectangle_7" data-name="&lt;Rectangle&gt;" class="cls-39" x="46.26" y="139.07" width="1.39" height="1.25"/><path id="_Path_8" data-name="&lt;Path&gt;" class="cls-40" d="M47.84,140.38a.07.07,0,0,0-.07-.06H44.09a.36.36,0,0,1-.34-.26,1.22,1.22,0,0,1,0-.72.36.36,0,0,1,.34-.26h3.67a.07.07,0,0,0,.07-.06.07.07,0,0,0-.07-.08H44a.46.46,0,0,0-.44.35,1.66,1.66,0,0,0,0,.84.46.46,0,0,0,.44.35h3.8A.07.07,0,0,0,47.84,140.38Z"/></g><rect id="_Rectangle_8" data-name="&lt;Rectangle&gt;" class="cls-31" x="44.61" y="141.6" width="4.38" height="1.25" transform="translate(93.61 284.44) rotate(-180)"/><path id="_Path_9" data-name="&lt;Path&gt;" class="cls-38" d="M45.18,142.91a.07.07,0,0,1,.07-.06h3.19a.36.36,0,0,0,.34-.26,1.22,1.22,0,0,0,0-.72.36.36,0,0,0-.34-.26H45.25a.07.07,0,0,1-.07-.06.07.07,0,0,1,.07-.08h3.32a.46.46,0,0,1,.44.35,1.66,1.66,0,0,1,0,.84.46.46,0,0,1-.44.35H45.25A.07.07,0,0,1,45.18,142.91Z"/><rect id="_Rectangle_9" data-name="&lt;Rectangle&gt;" class="cls-39" x="43.43" y="141.6" width="1.85" height="1.25" transform="translate(88.71 284.44) rotate(-180)"/><path id="_Path_10" data-name="&lt;Path&gt;" class="cls-41" d="M43.26,142.91a.07.07,0,0,1,.07-.06h5.2a.36.36,0,0,0,.34-.26,1.22,1.22,0,0,0,0-.72.36.36,0,0,0-.34-.26h-5.2a.07.07,0,0,1-.07-.06.07.07,0,0,1,.07-.08h5.33a.46.46,0,0,1,.44.35,1.66,1.66,0,0,1,0,.84.46.46,0,0,1-.44.35H43.32A.07.07,0,0,1,43.26,142.91Z"/><polygon id="_Path_11" data-name="&lt;Path&gt;" class="cls-42" points="48.05 142 48.3 142 48.3 142.66 48.17 142.55 48.05 142.66 48.05 142"/><polygon id="_Path_12" data-name="&lt;Path&gt;" class="cls-43" points="47.42 142 48.05 142 48.05 142.05 47.42 142"/><polygon id="_Path_13" data-name="&lt;Path&gt;" class="cls-43" points="48.64 142 48.3 142 48.3 142.05 48.64 142"/><rect id="_Rectangle_10" data-name="&lt;Rectangle&gt;" class="cls-31" x="44.61" y="135.99" width="4.38" height="1.25" transform="translate(93.61 273.23) rotate(-180)"/><path id="_Path_14" data-name="&lt;Path&gt;" class="cls-38" d="M45.11,137.31a.07.07,0,0,1,.07-.06h3.19a.36.36,0,0,0,.34-.26,1.22,1.22,0,0,0,0-.72.36.36,0,0,0-.34-.26H45.18a.07.07,0,0,1-.07-.06.07.07,0,0,1,.07-.08H48.5a.46.46,0,0,1,.44.35,1.66,1.66,0,0,1,0,.84.46.46,0,0,1-.44.35H45.18A.07.07,0,0,1,45.11,137.31Z"/><rect id="_Rectangle_11" data-name="&lt;Rectangle&gt;" class="cls-39" x="42.87" y="135.99" width="1.82" height="1.25" transform="translate(87.57 273.23) rotate(-180)"/><path id="_Path_15" data-name="&lt;Path&gt;" class="cls-44" d="M48.11,136a.83.83,0,0,1-.06.5c-.12.3-.33.75-.33.75h.47l.14-1.11-.05-.14Z"/><path id="_Path_16" data-name="&lt;Path&gt;" class="cls-45" d="M42.61,137.31a.08.08,0,0,1,.08-.06h5.77a.4.4,0,0,0,.38-.26,1.11,1.11,0,0,0,0-.72.4.4,0,0,0-.38-.26H42.69a.08.08,0,0,1-.08-.06.07.07,0,0,1,.08-.08H48.6a.5.5,0,0,1,.49.35,1.5,1.5,0,0,1,0,.84.5.5,0,0,1-.49.35H42.69A.07.07,0,0,1,42.61,137.31Z"/><g id="_Group_4" data-name="&lt;Group&gt;"><rect id="_Rectangle_12" data-name="&lt;Rectangle&gt;" class="cls-46" x="42" y="142.99" width="8.24" height="1.38" rx="0.69" ry="0.69"/><rect id="_Rectangle_13" data-name="&lt;Rectangle&gt;" class="cls-47" x="42.44" y="142.99" width="0.35" height="1.38"/><rect id="_Rectangle_14" data-name="&lt;Rectangle&gt;" class="cls-47" x="49.3" y="142.99" width="0.35" height="1.38"/><rect id="_Rectangle_15" data-name="&lt;Rectangle&gt;" class="cls-47" x="48.53" y="142.99" width="0.35" height="1.38"/><ellipse id="_Path_17" data-name="&lt;Path&gt;" class="cls-48" cx="43.31" cy="143.69" rx="0.21" ry="0.22"/><ellipse id="_Path_18" data-name="&lt;Path&gt;" class="cls-49" cx="43.29" cy="143.68" rx="0.21" ry="0.22"/></g><path id="_Path_19" data-name="&lt;Path&gt;" class="cls-29" d="M43.48,135.85l.25-1.26a.44.44,0,0,1,.33-.35,8.79,8.79,0,0,1,1.82-.17,7.71,7.71,0,0,1,1.49.11.44.44,0,0,1,.33.34l.28,1.32Z"/><path id="_Path_20" data-name="&lt;Path&gt;" class="cls-50" d="M47.7,134.52h0a.42.42,0,0,0-.32-.33,7.66,7.66,0,0,0-1.5-.12,8.76,8.76,0,0,0-1.83.17.42.42,0,0,0-.32.34l-.13.63A7,7,0,0,1,47.7,134.52Z"/><g id="_Group_5" data-name="&lt;Group&gt;"><path id="_Path_21" data-name="&lt;Path&gt;" class="cls-32" d="M48.5,136.23h-.12c0-.21,0-.33-.2-.39s-.18-.44-.18-1.73c0-.21,0-.42,0-.48s-.05,0-.09,0l-.13,0c.11-.08.28-.09.32,0a2,2,0,0,1,0,.54,7,7,0,0,0,.1,1.6A.46.46,0,0,1,48.5,136.23Z"/></g><path id="_Path_22" data-name="&lt;Path&gt;" class="cls-32" d="M48,135.3a.72.72,0,0,0,0,.22c0,.15,0,.25.08.25s.19,0,.18-.08a2.41,2.41,0,0,0-.07-.39C48.15,135.24,48,135.3,48,135.3Z"/><path id="_Path_23" data-name="&lt;Path&gt;" class="cls-51" d="M48.09,135.77a.2.2,0,0,0,0,.17.52.52,0,0,1,.13.48c0,.34-.19.79-.15.84a.58.58,0,0,0,.22.12s.09-.11.09-.09-.06.12,0,.13.29,0,.31,0a.44.44,0,0,1,0-.09s0,.1.06.08,0-1.28-.19-1.49-.34-.2-.34-.2Z"/><path id="_Path_24" data-name="&lt;Path&gt;" class="cls-51" d="M48.2,135.29c0-.05-.19,0-.19,0a.35.35,0,0,0,0,.06l.06,0c.08,0,.12.07.13.23a.25.25,0,0,1,0,.14c.05,0,.11,0,.1-.07A2.41,2.41,0,0,0,48.2,135.29Z"/><g id="_Group_6" data-name="&lt;Group&gt;"><ellipse id="_Path_25" data-name="&lt;Path&gt;" class="cls-52" cx="48.09" cy="135.18" rx="0.15" ry="0.16"/><path id="_Path_26" data-name="&lt;Path&gt;" class="cls-53" d="M48,135.33h.05a.16.16,0,0,0,.15-.16.16.16,0,0,0-.06-.12A.22.22,0,0,1,48,135.33Z"/></g><path id="_Path_27" data-name="&lt;Path&gt;" class="cls-54" d="M48.33,136.62c.07-.58-.07-.68-.12-.74s0-.14,0-.14h0l-.11,0a.2.2,0,0,0,0,.17.52.52,0,0,1,.13.48c0,.34-.19.79-.15.84a.56.56,0,0,0,.15.1C48.21,137.25,48.27,137.05,48.33,136.62Z"/><path id="_Path_28" data-name="&lt;Path&gt;" class="cls-54" d="M48.35,135.87c.13.06.16.27.18.6a2.08,2.08,0,0,1-.1.68,2,2,0,0,0,.16-.56c0-.3.09-.25.11-.05a7,7,0,0,1,0,.79s0,.1.06.08,0-1.28-.19-1.49-.34-.2-.34-.2A.14.14,0,0,0,48.35,135.87Z"/></g><text class="cls-55" transform="translate(69.1 53.77)">Donna pledged $200 </text><text class="cls-55" transform="translate(69.1 94.22)">Mercado Colombia<tspan x="0" y="10.48">received $180 </tspan></text><text class="cls-55" transform="translate(69.1 139.57)">Aida accepted goods </text><circle class="cls-7" cx="40.41" cy="96.24" r="14.06"/><path d="M46.82,88.87H34.09l-1.55,3.51c0,1.57,1.58,1.42,1.66,1.42v8.71H46.91v-8.7h0a1.44,1.44,0,0,0,1.44-1.44Zm-.28.41,1.31,2.94h-2L45,89.28Zm-5.8,0h1.57l.44,2.94h-2Zm2,3.23a1,1,0,0,1-1,.87,1,1,0,0,1-1-.87Zm-6.26-3.23H38l-.44,3h-2Zm1.09,3.23a1,1,0,0,1-1,.87,1,1,0,0,1-1-.87ZM45.63,102H41.39V94.52h4.24Zm.71,0h-.43V94.23H41.11V102H34.75V93.58a1.55,1.55,0,0,0,.52-.59,1.43,1.43,0,0,0,2.59,0,1.43,1.43,0,0,0,2.59,0,1.43,1.43,0,0,0,2.59,0,1.43,1.43,0,0,0,2.59,0,1.42,1.42,0,0,0,.73.7l0,8.25Zm.57-8.56a1,1,0,0,1-1-.87h2A1,1,0,0,1,46.91,93.4Zm-11.86,7h5.63V94.23H35.05Zm.28-5.91h5.08V96H40v-.81H39V96h-.59v-.81H37.31V96h-.59v-.81H35.67V96h-.35S35.34,94.5,35.34,94.5Zm0,1.74h5.08v1.31H39.15v-.81H38.09v.81h-.62v-.81H36.41v.81H35.32S35.34,96.24,35.34,96.24Zm0,1.58h5.08v1.31H40v-.79H38.93v.79h-.59v-.79H37.28v.79H36.7v-.79H35.64v.79h-.32l0-1.31Zm0,1.6h5.08v.71H35.34ZM45.28,98l-.14-1.63-1,.09-.62-1-.65,1.11-1.12.09.14,1.63Zm-1.76-2.36.51.82-1,.09Zm1.45.93.11,1.27-3,.27L42,96.84Zm-2.59,2.26a.28.28,0,1,1-.28-.28A.28.28,0,0,1,42.39,98.83Z"/><text class="cls-55" transform="translate(69.1 178.91)">Donna is refunded <tspan x="0" y="10.48">$20 in change</tspan></text><path class="cls-56" d="M35.58,174.31a2.68,2.68,0,0,0-1.09.2,1.92,1.92,0,0,0-1,1.14A21.59,21.59,0,0,0,32.25,180c-.34,2.29-.28,2.12-.42,2.79a25.7,25.7,0,0,0-.68,3.07,5.52,5.52,0,0,0,.91,3.4c2.66,3.41,14.3,3,16.5,0a6.23,6.23,0,0,0,.8-2.07,7.79,7.79,0,0,0,0-3.49c-.26-2.39-.56-4.29-.74-5.49a5.92,5.92,0,0,0-1.09-2.82,7.62,7.62,0,0,0-5.57-3A8.91,8.91,0,0,0,35.58,174.31Z"/><path class="cls-57" d="M38.12,174.35c-3.65,1.38-4.11,6.21-4.21,7.2a8.14,8.14,0,0,0,1.36,5.91,7.39,7.39,0,0,0,4.35,2.72,5.64,5.64,0,0,0,6.11-2.45,9.39,9.39,0,0,0,.88-8.62,7.5,7.5,0,0,0-3.4-4.28A6.46,6.46,0,0,0,38.12,174.35Z"/><path class="cls-56" d="M40.14,175a4.19,4.19,0,0,1-1.59,2.39c-1.15.76-2.15.35-3.19,1.08a3.91,3.91,0,0,0-1.44,2.84,6.16,6.16,0,0,1,4.19-7.42,8.13,8.13,0,0,1,1.41-.51c3.16-.72,6.64,3.13,7.11,3.66a2.41,2.41,0,0,1-2.1.36c-.8-.38-1.08-1.54-1.2-1.5s.42,1.19,0,1.54-1.57-.37-1.63-.4A4.09,4.09,0,0,1,40.14,175Z"/><circle cx="36.53" cy="180.54" r="1.02"/><circle cx="44.83" cy="180.66" r="1.02"/><path class="cls-58" d="M39,183.72a2,2,0,0,0,3.13,0"/><path d="M45.13,179.87a.42.42,0,0,0,.34-.18c.06-.12,0-.24,0-.25a.35.35,0,0,1,.11.31c0,.21-.3.38-.41.32S45.13,180,45.13,179.87Z"/><path d="M45.34,180.15a.42.42,0,0,0,.34-.18c.06-.12,0-.24,0-.25a.35.35,0,0,1,.11.31c0,.21-.3.38-.41.32S45.34,180.3,45.34,180.15Z"/><path d="M36.13,179.83a.42.42,0,0,1-.34-.18c-.06-.12,0-.24,0-.25a.35.35,0,0,0-.11.31c0,.21.3.38.41.32S36.13,180,36.13,179.83Z"/><path d="M35.91,180.11a.42.42,0,0,1-.34-.18c-.06-.12,0-.24,0-.25a.35.35,0,0,0-.11.31c0,.21.3.38.42.32S35.91,180.26,35.91,180.11Z"/><circle class="cls-27" cx="45.03" cy="180.16" r="0.2"/><circle class="cls-27" cx="36.73" cy="180.11" r="0.2"/><path class="cls-59" d="M40,181.17a.58.58,0,0,0,.81.11l.11-.11"/><path class="cls-59" d="M37.08,178.9a2.23,2.23,0,0,0-1.94.3"/><path class="cls-59" d="M46.25,179.47a2.23,2.23,0,0,0-1.92-.4"/><circle class="cls-7" cx="40.41" cy="182.25" r="14.06"/><path class="cls-56" d="M35.58,45.3a2.68,2.68,0,0,0-1.09.2,1.92,1.92,0,0,0-1,1.14,21.59,21.59,0,0,0-1.22,4.31c-.34,2.29-.28,2.12-.42,2.79a25.7,25.7,0,0,0-.68,3.07,5.52,5.52,0,0,0,.91,3.4c2.66,3.41,14.3,3,16.5,0a6.23,6.23,0,0,0,.8-2.07,7.79,7.79,0,0,0,0-3.49c-.26-2.39-.56-4.29-.74-5.49a5.92,5.92,0,0,0-1.09-2.82,7.62,7.62,0,0,0-5.57-3A8.91,8.91,0,0,0,35.58,45.3Z"/><path class="cls-57" d="M38.12,45.33c-3.65,1.38-4.11,6.21-4.21,7.2a8.14,8.14,0,0,0,1.36,5.91,7.39,7.39,0,0,0,4.35,2.72,5.64,5.64,0,0,0,6.11-2.45,9.39,9.39,0,0,0,.88-8.62,7.5,7.5,0,0,0-3.4-4.28A6.46,6.46,0,0,0,38.12,45.33Z"/><path class="cls-56" d="M40.14,46a4.19,4.19,0,0,1-1.59,2.39c-1.15.76-2.15.35-3.19,1.08a3.91,3.91,0,0,0-1.44,2.84,7.08,7.08,0,0,1,.52-4.38,7,7,0,0,1,3.68-3,8.13,8.13,0,0,1,1.41-.51c3.16-.72,6.64,3.13,7.11,3.66a2.41,2.41,0,0,1-2.1.36c-.8-.38-1.08-1.54-1.2-1.5s.42,1.19,0,1.54-1.57-.37-1.63-.4A4.09,4.09,0,0,1,40.14,46Z"/><circle cx="36.53" cy="51.53" r="1.02"/><circle cx="44.83" cy="51.65" r="1.02"/><path class="cls-58" d="M39,54.71a2,2,0,0,0,3.13,0"/><path d="M45.13,50.86a.42.42,0,0,0,.34-.18c.06-.12,0-.24,0-.25a.35.35,0,0,1,.11.31c0,.21-.3.38-.41.32S45.13,51,45.13,50.86Z"/><path d="M45.34,51.13a.42.42,0,0,0,.34-.18c.06-.12,0-.24,0-.25a.35.35,0,0,1,.11.31c0,.21-.3.38-.41.32S45.34,51.29,45.34,51.13Z"/><path d="M36.13,50.81a.42.42,0,0,1-.34-.18c-.06-.12,0-.24,0-.25a.35.35,0,0,0-.11.31c0,.21.3.38.41.32S36.13,51,36.13,50.81Z"/><path d="M35.91,51.09a.42.42,0,0,1-.34-.18c-.06-.12,0-.24,0-.25a.35.35,0,0,0-.11.31c0,.21.3.38.42.32S35.91,51.25,35.91,51.09Z"/><circle class="cls-27" cx="45.03" cy="51.14" r="0.2"/><circle class="cls-27" cx="36.73" cy="51.1" r="0.2"/><path class="cls-59" d="M40,52.16a.58.58,0,0,0,.81.11l.11-.11"/><path class="cls-59" d="M37.08,49.88a2.23,2.23,0,0,0-1.94.3"/><path class="cls-59" d="M46.25,50.45a2.23,2.23,0,0,0-1.92-.4"/><circle class="cls-7" cx="40.41" cy="53.24" r="14.06"/><path class="cls-60" d="M160.62,189.52c-1.44-.34-3.33.85-3.52,1.85A75.38,75.38,0,0,1,147,217.46a2.54,2.54,0,0,0,1.49,3.79l4.42,1a3,3,0,0,0,3.61-2.21l6.39-26.22a3,3,0,0,0,0-1.48C162.46,190.86,161.65,189.77,160.62,189.52Z"/><path class="cls-60" d="M164.88,187.2a8.81,8.81,0,0,0-6.65-3.59,8.23,8.23,0,0,0-5.68,2.32,8.66,8.66,0,0,0-2.44,5.81,8.12,8.12,0,1,0,14.78-4.54Z"/><path class="cls-61" d="M164.88,187.2a8.81,8.81,0,0,0-6.65-3.59,8.23,8.23,0,0,0-5.68,2.32,8.66,8.66,0,0,0-2.44,5.81,8.12,8.12,0,1,0,14.78-4.54Z"/><path class="cls-60" d="M156.92,190.12c1.35-.6,3.43.21,3.8,1.16A75.38,75.38,0,0,0,175.59,215a2.54,2.54,0,0,1-.75,4l-4.15,1.85a3,3,0,0,1-4-1.5l-11.2-24.56a3,3,0,0,1-.27-1.46C155.36,191.78,156,190.55,156.92,190.12Z"/><circle class="cls-7" cx="158.38" cy="192.19" r="8.08"/></g></g></svg>