<svg id="Layer_1" data-name="Layer 1" xmlns="http://www.w3.org/2000/svg" viewBox="0 0 280 280"><defs><style>.cls-1{fill:#66b1ce;}.cls-2{fill:#fff;}</style></defs><title>SGlogo</title><circle class="cls-1" cx="140" cy="140" r="140"/><path class="cls-2" d="M60.6,225.5c-3.9-13.5-7.7-26.9-11.5-40.6,2.3-.7,4.6-1.3,7-2,13.7-4,27.4-7.9,41.2-11.9l12-3.6a16.84,16.84,0,0,1,13.5,1.6q26.1,14.7,52.3,29.2c6.8,3.8,5.4,12.5,1.8,16.3a11.28,11.28,0,0,1-14.2,2.2c-6.6-3.7-13.3-7.4-19.9-11.1l-1.6-.9-2,3.7,3.9,2.2c5.8,3.2,11.5,6.5,17.3,9.6,6,3.3,12,3.3,17.6-.8,5-3.6,7-8.7,6.2-14.9-.2-1.2,0-1.6,1.2-2,11.9-3.3,23.7-6.6,35.5-9.9,4.8-1.4,9-.6,12.4,3.1s4,7.9,2.5,12.5a12,12,0,0,1-8.6,8.3c-24.8,7-49.7,14.1-74.5,21.2a28.69,28.69,0,0,1-10.5,1.4,19.66,19.66,0,0,1-8.8-3c-11.2-6.9-22.5-13.9-33.7-20.8a2.57,2.57,0,0,0-2.4-.3c-11.9,3.4-23.9,6.8-35.9,10.2Z" transform="translate(-6.1 -3)"/><path class="cls-2" d="M142.9,96.3A13.52,13.52,0,0,1,162,94.5a13.82,13.82,0,0,1,4.8,8.6,13.08,13.08,0,0,1-3.9,11.5c-6.3,6.4-12.7,12.8-19.1,19.1a1.15,1.15,0,0,1-1.6.3l-.3-.3c-6.5-6.5-13.1-13-19.5-19.6a12.47,12.47,0,0,1-3.6-10.2,13.46,13.46,0,0,1,21.7-9.7A25.73,25.73,0,0,1,142.9,96.3Z" transform="translate(-6.1 -3)"/><path class="cls-2" d="M192.2,71.6A9.34,9.34,0,0,1,194,70a7,7,0,0,1,9.7,2.4,8.8,8.8,0,0,1,1,2.7,7.07,7.07,0,0,1-2,6l-10,10a.63.63,0,0,1-.9.1.1.1,0,0,1-.1-.1L181.5,80.9a6.62,6.62,0,0,1-1.9-5.3,7.16,7.16,0,0,1,7.7-6.5,7.33,7.33,0,0,1,3.7,1.4A4.26,4.26,0,0,1,192.2,71.6Z" transform="translate(-6.1 -3)"/><path class="cls-2" d="M96.2,66.8A9.34,9.34,0,0,1,98,65.2a7.15,7.15,0,0,1,9.8,2.4,7.94,7.94,0,0,1,1,2.7,7.07,7.07,0,0,1-2,6l-10,10a.63.63,0,0,1-.9.1.1.1,0,0,1-.1-.1L85.6,76.1a6.62,6.62,0,0,1-1.9-5.3,7.06,7.06,0,0,1,7.6-6.5,7.33,7.33,0,0,1,3.8,1.4Z" transform="translate(-6.1 -3)"/><path class="cls-2" d="M168.9,58.8a2.18,2.18,0,0,1,.9-.7,3.41,3.41,0,0,1,4.7,1.1,5,5,0,0,1,.5,1.3,3.2,3.2,0,0,1-1,2.9l-4.8,4.8c-.1.1-.3.2-.4.1a.1.1,0,0,1-.1-.1l-4.9-4.9a3.11,3.11,0,0,1-.9-2.6,3.33,3.33,0,0,1,3.7-3.1,3.59,3.59,0,0,1,1.8.7Z" transform="translate(-6.1 -3)"/><path class="cls-2" d="M218.2,52.6a4.94,4.94,0,0,1,7-.6,5.32,5.32,0,0,1,1.7,3.1,5,5,0,0,1-1.4,4.2l-7,7c-.1.2-.4.2-.6.1l-.1-.1-7.2-7.2a4.39,4.39,0,0,1-1.3-3.7,4.77,4.77,0,0,1,2.8-4.1,4.71,4.71,0,0,1,5.2.5A7.27,7.27,0,0,1,218.2,52.6Z" transform="translate(-6.1 -3)"/><path class="cls-2" d="M108.5,133.9a6.89,6.89,0,0,1,1.3-1.1,5,5,0,0,1,6.9,1.7,6.7,6.7,0,0,1,.7,1.8,5,5,0,0,1-1.4,4.2c-2.3,2.4-4.7,4.7-7,7-.1.2-.4.2-.6.1l-.1-.1-7.2-7.2a4.39,4.39,0,0,1-1.3-3.7,5,5,0,0,1,5.4-4.6,4.9,4.9,0,0,1,2.6,1A3.11,3.11,0,0,0,108.5,133.9Z" transform="translate(-6.1 -3)"/><path class="cls-2" d="M199.7,137.2a17.25,17.25,0,0,1,24.2-2.3,16.62,16.62,0,0,1,6,10.8,16.85,16.85,0,0,1-4.9,14.6c-8,8.1-16.1,16.1-24.2,24.2a1.57,1.57,0,0,1-2.1.4c-.1-.1-.3-.2-.4-.4-8.3-8.3-16.5-16.4-24.7-24.8a15.79,15.79,0,0,1-4.5-12.9,16.22,16.22,0,0,1,9.6-14.1c6.3-3,12.3-2.3,17.9,1.9A20.29,20.29,0,0,1,199.7,137.2Z" transform="translate(-6.1 -3)"/><polygon class="cls-2" points="152.6 103.4 151.2 102 182.4 76 183.8 77.4 152.6 103.4"/><rect class="cls-2" x="171.17" y="94.46" width="3.4" height="76.1" transform="translate(-43.97 184.6) rotate(-52.12)"/><polygon class="cls-2" points="94 73.2 92.1 74.5 128.6 101.4 130.5 100 94 73.2"/><polygon class="cls-2" points="188.8 80.5 164.7 61.3 165.4 60.7 189.5 79.9 188.8 80.5"/><rect class="cls-2" x="189.38" y="68.81" width="33.6" height="1.1" transform="translate(-4.01 141.63) rotate(-38.84)"/><path class="cls-2" d="M110.1,139.7l-.2-.2a.91.91,0,0,1-.1-1.2.1.1,0,0,1,.1-.1L132,120.1a.78.78,0,0,1,1.1,0h0a.92.92,0,0,1,.1,1.2l-.1.1-21.9,18.3A.78.78,0,0,1,110.1,139.7Z" transform="translate(-6.1 -3)"/></svg>