<svg id="Layer_1" data-name="Layer 1" xmlns="http://www.w3.org/2000/svg" viewBox="0 0 244 534"><defs><style>.cls-1{fill:#ffd5ab;}.cls-2{fill:#42210b;}.cls-3,.cls-8,.cls-9{fill:none;stroke-linecap:round;stroke-miterlimit:10;}.cls-3{stroke:#000;stroke-width:3px;}.cls-4{fill:#fff;}.cls-5{fill:#c69c6d;}.cls-6{fill:#0071bc;}.cls-7{fill:#e38679;}.cls-8,.cls-9{stroke:#c69c6d;}.cls-9{stroke-width:2px;}</style></defs><title>Artboard 1 copy</title><path class="cls-1" d="M67.55,467.5v39.43a10.82,10.82,0,0,0,21.51,0V466.29Z"/><path class="cls-1" d="M129.68,467.5v39.43a10.82,10.82,0,0,0,21.51,0V466.29Z"/><path class="cls-2" d="M67,42.27a18,18,0,0,0-9.55,2.39c-5.91,3.54-7.9,10.07-9,13.73C42.37,79.81,43,92.16,37.77,110.32A175.85,175.85,0,0,1,30,131.21C22,150,17.77,153.09,16.28,161c-3.15,16.78,10.12,32.5,14.92,38.2C68.08,243,187.1,236.44,207.27,189.1c8.31-19.51,0-46.33-1.19-50.14-6.15-19.81-15.11-23.45-24.47-50.14-7.16-20.43-3.24-22.08-9.55-34-2.19-4.13-17.25-32.63-48.94-36.41C90.33,14.49,68.5,40.45,67,42.27Z"/><path class="cls-1" d="M99.52,164.76l-10.46,15.4c-.08,12.57,9.6,23,21.51,23.9,12.75,1,24.45-9.23,25.09-22.7l-12.18-16.23Z"/><path class="cls-1" d="M89.4,36c-32.09,12.17-36.17,54.58-37,63.27-.95,9.87-3,32.15,11.94,51.93,2.13,2.82,15.11,19.44,38.2,23.87,5.51,1.06,17.64,3.22,31-2.39,12.48-5.22,19.24-14.33,22.68-19.1,15.72-21.78,16.83-52,7.76-75.8-3.44-9-10.38-27.26-29.84-37.6C130.62,38.3,110.43,28,89.4,36Z"/><path class="cls-2" d="M82.27,45.83a23.74,23.74,0,0,1-.6,6.93c-2.37,9.75-10.35,13.39-16.6,19.76-4.19,4.28-9.44,11.65-12.68,25-1.25-7-3.23-23.39,4.53-38.48,8-15.48,22.32-22.11,32.3-26.7a64.44,64.44,0,0,1,12.38-4.51c25.13-5.5,49.72,21.13,55.55,27.74a32.54,32.54,0,0,1-11.47,7.63c-6.43,2.42-14.09,2.6-40.45-7.63C99.46,53.3,91.58,50.1,82.27,45.83Z"/><circle cx="75.44" cy="90.47" r="8.94"/><circle cx="148.36" cy="91.53" r="8.94"/><path class="cls-3" d="M97,112.4a17.66,17.66,0,0,0,27.48,0"/><path d="M151,84.58c1.16-.16,2.51-.55,3-1.59s.06-2.1.27-2.16,1.21,1.32,1,2.75c-.31,1.88-2.64,3.37-3.64,2.84C151.41,86.3,151,85.95,151,84.58Z"/><path d="M152.85,87c1.16-.16,2.51-.55,3-1.59s.06-2.1.27-2.16,1.21,1.32,1,2.75c-.31,1.88-2.64,3.37-3.64,2.84C153.3,88.72,152.86,88.37,152.85,87Z"/><path d="M71.89,84.2c-1.16-.16-2.51-.55-3-1.59s-.06-2.1-.27-2.16-1.21,1.32-1,2.75c.31,1.88,2.64,3.37,3.64,2.84C71.44,85.92,71.88,85.57,71.89,84.2Z"/><path d="M70,86.62c-1.16-.16-2.51-.55-3-1.59s-.06-2.1-.27-2.16-1.21,1.32-1,2.75C66,87.5,68.35,89,69.35,88.45,69.55,88.34,70,88,70,86.62Z"/><circle class="cls-4" cx="150.07" cy="87.06" r="1.72"/><circle class="cls-4" cx="77.16" cy="86.68" r="1.72"/><circle class="cls-5" cx="67.31" cy="103.45" r="1.79"/><circle class="cls-5" cx="73.88" cy="105.24" r="1.79"/><circle class="cls-5" cx="69.1" cy="108.82" r="1.79"/><circle class="cls-5" cx="150.87" cy="105.24" r="1.79"/><circle class="cls-5" cx="157.44" cy="107.03" r="1.79"/><circle class="cls-5" cx="152.66" cy="110.61" r="1.79"/><path class="cls-1" d="M155,186.13a67.78,67.78,0,0,0,21.51-14.34c25.08-25.12,34.73-77.06,34.65-90.8,0-1.5-.16-7.35,3.58-10.75a9.62,9.62,0,0,1,7.17-2.39,10.62,10.62,0,0,1,6,3.58c4.5,5.11,5.49,21.44-3.58,50.18-3.78,12-7.32,23.19-15.53,37C202.56,169.13,195,182,180.1,193.3a94.94,94.94,0,0,1-31.31,15.53Z"/><path class="cls-1" d="M67.24,210.58a67.78,67.78,0,0,0-16.77,19.67c-17.26,31-12.35,83.61-8.52,96.82.42,1.44,2.16,7-.51,11.32a9.62,9.62,0,0,1-6.24,4.26,10.62,10.62,0,0,1-6.73-1.82c-5.72-3.68-11.14-19.12-10.26-49.25.36-12.56.7-24.31,4.82-39.87,2.51-9.49,6.67-25.43,18.12-41.17a98.28,98.28,0,0,1,24-23.21Z"/><path class="cls-6" d="M55.6,336.68l6,154.13H92.64L101,368.93l19.12-1.19L123.7,490.8H156l16.73-155.32c-13.29-6.67-53.45-24.6-95.58-9.56A100.69,100.69,0,0,0,55.6,336.68Z"/><path class="cls-7" d="M164.33,181.35H135.65l-25.09,22.7-21.51-23.9-23.9,7.17L55.6,336.68a264.11,264.11,0,0,0,117.09-1.19L156,206.44Z"/><path class="cls-8" d="M106,96a5.1,5.1,0,0,0,8.1,0"/><path class="cls-9" d="M80.26,76a17.21,17.21,0,0,0-8.82-.66,17.22,17.22,0,0,0-8.23,3.29"/><path class="cls-9" d="M160.83,81a19.61,19.61,0,0,0-16.9-3.49"/></svg>