<svg id="Layer_1" data-name="Layer 1" xmlns="http://www.w3.org/2000/svg" viewBox="0 0 349 231"><defs><style>.cls-1{fill:#ffd5ab;}.cls-2{fill:none;stroke:#000;stroke-linecap:round;stroke-miterlimit:10;}.cls-3{fill:#fff;}.cls-4{fill:#e38679;}.cls-5{fill:#42210b;}.cls-6{fill:#ffb2ac;}.cls-7{fill:#0071bc;}</style></defs><title>Artboard 1 copy 2</title><path class="cls-1" d="M52.07,178.25V207c.4,4.4,2.65,7.4,4.94,7,2-.37,3.63-3.23,3.95-7V177.37Z"/><path class="cls-1" d="M77.75,164.33v39.93c.4,6.11,2.65,10.28,4.94,9.68,2-.52,3.63-4.49,3.95-9.68V163.1Z"/><path class="cls-1" d="M65.28,68.64,61,75a9.63,9.63,0,1,0,19.25.49l-5-6.71Z"/><path class="cls-1" d="M61.1,19.4c-14,5.31-15.2,24-15.29,26.14-.14,3.06-.45,10,4.15,16.11A21.48,21.48,0,0,0,57.89,68c9.54,4.74,18.94,1.42,20.61.79a24.31,24.31,0,0,0,4.76-2.38c8.31-5.49,10.1-14.72,10.3-15.85a25.85,25.85,0,0,0-1.62-13.89c-1.19-3.28-4-11.14-12.33-15.54C78.13,20.35,69.79,16.11,61.1,19.4Z"/><circle cx="55.33" cy="41.91" r="3.69"/><circle cx="85.46" cy="42.35" r="3.69"/><path class="cls-2" d="M64.25,51A7.3,7.3,0,0,0,75.6,51"/><path d="M86.54,39.47a1.61,1.61,0,0,0,1.26-.66c.21-.41,0-.87.11-.89s.5.55.4,1.14c-.13.78-1.09,1.39-1.5,1.17C86.73,40.18,86.55,40,86.54,39.47Z"/><path d="M87.32,40.47a1.61,1.61,0,0,0,1.26-.66c.21-.41,0-.87.11-.89s.5.55.4,1.14c-.13.78-1.09,1.39-1.5,1.17C87.51,41.19,87.33,41,87.32,40.47Z"/><path d="M53.87,39.32a1.61,1.61,0,0,1-1.26-.66c-.21-.41,0-.87-.11-.89s-.5.55-.4,1.14c.13.78,1.09,1.39,1.5,1.17C53.68,40,53.86,39.88,53.87,39.32Z"/><path d="M53.09,40.32a1.61,1.61,0,0,1-1.26-.66c-.21-.41,0-.87-.11-.89s-.5.55-.4,1.14c.13.78,1.09,1.39,1.5,1.17C52.9,41,53.08,40.88,53.09,40.32Z"/><circle class="cls-3" cx="86.17" cy="40.5" r="0.71"/><circle class="cls-3" cx="56.04" cy="40.34" r="0.71"/><path class="cls-1" d="M51.95,87.58A28,28,0,0,0,45,95.7c-7.13,12.82-5.1,34.55-3.52,40,.17.6.89,2.9-.21,4.68a4,4,0,0,1-2.58,1.76,4.39,4.39,0,0,1-2.78-.75c-2.36-1.52-4.6-7.9-4.24-20.35a66,66,0,0,1,2-16.48,48.47,48.47,0,0,1,7.49-17A40.61,40.61,0,0,1,51.09,78Z"/><path class="cls-1" d="M97.61,91.56c3.64,9,24.15,22.62,31.52,24.88.59.18,2.92.85,3.8,2.74a4,4,0,0,1,.06,3.12,4.39,4.39,0,0,1-2.15,1.91c-2.57,1.14-9.13-.49-19.34-7.62a66,66,0,0,1-12.68-10.7A50.53,50.53,0,0,1,88.69,90.32a44.62,44.62,0,0,1-3-13.57c2.36.19,5.8.58,7.08,3.14"/><path class="cls-4" d="M87.21,76.71a26.58,26.58,0,0,0-7-1.21A9.63,9.63,0,1,1,61,75l-9.87,3c-7.4,47.65-11.74,82.94-11.43,91.48.07,2-.24,6.07,2.38,8.72,3.06,3.1,8.2,2.38,10.3,2.38,26.16,0,42.73,3.75,46.76-6.34,3.17-7.93.73-15.46-10.49-88.33C88,82,87.53,78.84,87.21,76.71Z"/><ellipse class="cls-4" cx="51.94" cy="48.38" rx="3.96" ry="1.39"/><ellipse class="cls-4" cx="88.4" cy="48.38" rx="3.96" ry="1.39"/><path class="cls-5" d="M81.83,23.54c-2.16-5.69-1.08-8.33-.21-9.54,4-5.5,20.26-4.53,26.84,5.14,5.22,7.67,3.57,19.72-5.06,27.63a14,14,0,0,0-2.24-6.14,13.23,13.23,0,0,0-2.7-2.9C95.5,35.29,89.66,30.26,81.83,23.54Z"/><path class="cls-5" d="M78.49,32.33A30.87,30.87,0,0,1,67.4,24.4a37.27,37.27,0,0,1-12.68,9.51c-2.59,1.17-5,1.12-7.13,1.59.39-1.75,3-11.94,11.89-15.85a21.51,21.51,0,0,1,6.34-1.59,23.71,23.71,0,0,1,12.68,2.38C87.08,24.59,90.4,32.65,91.18,34.7A30.84,30.84,0,0,1,78.49,32.33Z"/><path class="cls-5" d="M55.22,23.61c1.55-5.88.2-8.4-.79-9.51C49.92,9,33.8,11.71,28.27,22,23.89,30.2,26.79,42,36.2,49a14,14,0,0,1,1.59-6.34,13.23,13.23,0,0,1,2.38-3.17C42.87,36.73,48.15,31.12,55.22,23.61Z"/><path class="cls-6" d="M55.51,20.44c-1.19.09-1.45,1.56-3.17,4-1.91,2.67-3.57,3.61-3.17,4.76a1.29,1.29,0,0,0,.79.79c.48.15,1.32,0,4-3.17,2.45-2.93,3.73-4.5,3.17-5.55A1.72,1.72,0,0,0,55.51,20.44Z"/><path class="cls-6" d="M81.7,21.73c1.19-.13,1.71,1.27,3.83,3.32,2.36,2.28,4.16,2.91,4,4.1a1.29,1.29,0,0,1-.64.92c-.45.24-1.29.24-4.47-2.4-2.94-2.44-4.48-3.75-4.12-4.88A1.72,1.72,0,0,1,81.7,21.73Z"/><path class="cls-1" d="M208.64,87c3.45,13.08,26.59,28.23,33,30.22.61.19,2.92.86,3.8,2.74a4,4,0,0,1,.06,3.12,4.39,4.39,0,0,1-2.15,1.91c-2.57,1.14-9.13-.49-19.34-7.62a66,66,0,0,1-12.68-10.7,50.53,50.53,0,0,1-10.12-15.59,44.62,44.62,0,0,1-3-13.57A11.35,11.35,0,0,1,208.64,87Z"/><path class="cls-1" d="M153.79,87c-3.45,13.08-26.59,28.23-33,30.22-.61.19-2.92.86-3.8,2.74a4,4,0,0,0-.06,3.12,4.39,4.39,0,0,0,2.15,1.91c2.57,1.14,9.13-.49,19.34-7.62a66,66,0,0,0,12.68-10.7,50.53,50.53,0,0,0,10.12-15.59,44.62,44.62,0,0,0,3-13.57A11.35,11.35,0,0,0,153.79,87Z"/><path class="cls-1" d="M162.64,193.74V210a4.47,4.47,0,0,0,8.89,0V193.23Z"/><path class="cls-1" d="M188.31,193.74V210a4.47,4.47,0,0,0,8.89,0V193.23Z"/><path class="cls-1" d="M175.85,68.64,171.53,75a9.63,9.63,0,1,0,19.25.49l-5-6.71Z"/><path class="cls-7" d="M157.7,139.68l2.47,63.69H173L176.46,153l7.9-.49,1.48,50.85h13.33l6.91-64.18c-5.49-2.76-22.09-10.17-39.49-3.95A41.61,41.61,0,0,0,157.7,139.68Z"/><path class="cls-4" d="M197.38,76.71a31.59,31.59,0,0,0-6.6-1.21A9.63,9.63,0,1,1,171.53,75c-1.41.36-3.44.91-5.85,1.71-3.65,1.21-6,2-7.93,3.17-1.61,1-5.09,3.64-7.13,10.3l8.72,6.34A8.62,8.62,0,0,0,161.72,91a8.17,8.17,0,0,0-.67-3.47l-3.34,52.17a109.13,109.13,0,0,0,48.38-.49q-6.41-53.38-6.91-53.32-.21,0,.59,9.08l11.1-6.34a18.26,18.26,0,0,0-6.34-8.72A22.5,22.5,0,0,0,197.38,76.71Z"/><path class="cls-1" d="M171.27,19.4c-14,5.31-15.2,24-15.29,26.14-.14,3.06-.45,10,4.15,16.11A21.48,21.48,0,0,0,168.06,68c9.54,4.74,18.94,1.42,20.61.79a24.75,24.75,0,0,0,4.76-2.38c1-.67,10.06-6.74,11.1-17.44.49-5.07-1-8.87-2.42-12.3-1.67-4.16-4.58-11.42-12.33-15.54C188.31,20.35,180,16.11,171.27,19.4Z"/><circle cx="165.9" cy="42.7" r="3.69"/><circle cx="196.03" cy="43.14" r="3.69"/><path class="cls-2" d="M174.81,51.76a7.3,7.3,0,0,0,11.36,0"/><circle class="cls-3" cx="196.74" cy="41.29" r="0.71"/><circle class="cls-3" cx="166.61" cy="41.14" r="0.71"/><ellipse class="cls-4" cx="162.11" cy="49.17" rx="3.96" ry="1.39"/><ellipse class="cls-4" cx="198.57" cy="49.17" rx="3.96" ry="1.39"/><path class="cls-5" d="M176.61,29.16a30.59,30.59,0,0,1-12.37,6.34,28.49,28.49,0,0,1-7.28.79,19.6,19.6,0,0,1,2.91-4.76c3.29-3.94,7.26-5.35,10.19-6.34a32.65,32.65,0,0,1,8.73-1.59c6.84-.53,12-.93,16.74,2.38a18,18,0,0,1,5.82,7.13,13.85,13.85,0,0,1-8-1.59,13.14,13.14,0,0,1-3.09-2.38,4.6,4.6,0,0,0,.79,1.59,4.73,4.73,0,0,0,2.3,1.59,33.77,33.77,0,0,1-4.37,0A35.15,35.15,0,0,1,176.61,29.16Z"/><path class="cls-5" d="M156.17,49.76c.23,0,.31-3,1.59-7.93a35.66,35.66,0,0,1,2.38-7.13c3.52-6.6,13.39-7.82,20.61-8.72s12.19-1.51,15.85,1.59c2.72,2.3,4,6,5.55,10.3,1.58,4.46,2,8,2.38,7.93s.4-2.89,0-5.55a26,26,0,0,0-4.76-11.1c-1.72-2.38-6.39-8.81-15.06-11.1-7.28-1.92-17.4-.92-23,5.55-2.78,3.22-3.6,6.82-4.76,11.89C155.23,43.07,155.83,49.74,156.17,49.76Z"/><path class="cls-1" d="M274.79,192.15v16.29a4.47,4.47,0,0,0,8.89,0V191.65Z"/><path class="cls-1" d="M300.47,192.15v16.29a4.47,4.47,0,0,0,8.89,0V191.65Z"/><path class="cls-7" d="M269.86,138.09l2.47,63.69h12.84l3.46-50.36,7.9-.49L298,201.78h13.33l6.91-64.18c-5.49-2.76-22.09-10.17-39.49-3.95A41.61,41.61,0,0,0,269.86,138.09Z"/><path class="cls-1" d="M308.88,84.81a28,28,0,0,1,7.27,7.82c7.67,12.5,6.57,34.3,5.22,39.82-.15.6-.77,2.94.41,4.67a4,4,0,0,0,2.65,1.65,4.39,4.39,0,0,0,2.74-.87c2.3-1.62,4.26-8.09,3.37-20.51A66,66,0,0,0,327.85,101c-2-6.38-3.73-12.17-8.2-16.67a23.89,23.89,0,0,0-10.51-6Z"/><path class="cls-1" d="M283,21.78c-14,5.31-15.2,24-15.29,26.14-.14,3.06-.45,10,4.15,16.11a21.48,21.48,0,0,0,7.93,6.34c9.54,4.74,18.94,1.42,20.61.79a24.75,24.75,0,0,0,4.76-2.38c1-.67,10.06-6.74,11.1-17.44.49-5.07-1-8.87-2.42-12.3-1.67-4.16-4.58-11.42-12.33-15.54C300.06,22.73,291.72,18.49,283,21.78Z"/><circle cx="277.66" cy="45.08" r="3.69"/><circle cx="307.79" cy="45.52" r="3.69"/><path class="cls-2" d="M286.57,54.14a7.3,7.3,0,0,0,11.36,0"/><circle class="cls-3" cx="308.5" cy="43.67" r="0.71"/><circle class="cls-3" cx="278.37" cy="43.51" r="0.71"/><ellipse class="cls-4" cx="273.87" cy="51.55" rx="3.96" ry="1.39"/><ellipse class="cls-4" cx="310.33" cy="51.55" rx="3.96" ry="1.39"/><path class="cls-5" d="M267.92,52.14c.23,0,.31-3,1.59-7.93,1-3.68,1.17-5.36,2.38-7.13a12.4,12.4,0,0,1,3.17-3.17,5.54,5.54,0,0,1,0,1.59c-.22,1.51-1,2.19-.79,2.38s2.55-1,4-3.17a8.53,8.53,0,0,0,.79-1.59,5.07,5.07,0,0,1,0,.79,5.35,5.35,0,0,1-.79,2.38,7.36,7.36,0,0,0,3.17-1.59,7.48,7.48,0,0,0,2.38-4c5.93,2.68,10.46,2.77,13.47,2.38,5.11-.66,7.12-2.88,10.3-1.59s4.92,5.26,6.34,8.72c1.81,4.4,2,8,2.38,7.93s.4-2.89,0-5.55a26,26,0,0,0-4.76-11.1c-1.72-2.38-6.39-8.81-15.06-11.1-7.28-1.92-17.4-.92-23,5.55-2.78,3.22-3.6,6.82-4.76,11.89C267,45.45,267.59,52.12,267.92,52.14Z"/><path class="cls-5" d="M286.73,21.22a2.46,2.46,0,0,0-1-3,2.36,2.36,0,0,0-2,0,3.34,3.34,0,0,1,3.94,0,3,3,0,0,1,1,2c1-1,1.12-1.61,1-2,0,0-.12-.32-1-1h0a3.64,3.64,0,0,1,2,1,2.06,2.06,0,0,1,0,1.91l0,.06C290.11,21.28,288.18,21.33,286.73,21.22Z"/><path class="cls-1" d="M265.55,87c-3.45,13.08-26.59,28.23-33,30.22-.61.19-2.92.86-3.8,2.74a4,4,0,0,0-.06,3.12,4.39,4.39,0,0,0,2.15,1.91c2.57,1.14,9.13-.49,19.34-7.62a66,66,0,0,0,12.68-10.7,50.53,50.53,0,0,0,10.12-15.59,44.62,44.62,0,0,0,3-13.57A11.35,11.35,0,0,0,265.55,87Z"/><path class="cls-1" d="M288.4,67.85l-4.32,6.36a9.63,9.63,0,1,0,19.25.49l-5-6.71Z"/><path class="cls-4" d="M309.93,75.92a31.59,31.59,0,0,0-6.6-1.21,9.63,9.63,0,1,1-19.25-.49c-1.41.36-3.44.91-5.85,1.71-3.65,1.21-6,2-7.93,3.17-1.61,1-5.09,3.64-7.13,10.3l8.72,6.34a8.62,8.62,0,0,0,2.38-5.55,8.17,8.17,0,0,0-.67-3.47l-3.34,52.17a109.13,109.13,0,0,0,48.38-.49Q312.22,85,311.72,85.07q-.21,0,.59,9.08l11.1-6.34a18.26,18.26,0,0,0-6.34-8.72A22.5,22.5,0,0,0,309.93,75.92Z"/></svg>