<?xml version="1.0" encoding="utf-8"?>
<!-- Generator: Adobe Illustrator 22.0.1, SVG Export Plug-In . SVG Version: 6.00 Build 0)  -->
<svg version="1.1" id="Layer_1" xmlns="http://www.w3.org/2000/svg" xmlns:xlink="http://www.w3.org/1999/xlink" x="0px" y="0px"
	 viewBox="0 0 349 231" style="enable-background:new 0 0 349 231;" xml:space="preserve">
<style type="text/css">
	.st0{fill:#FFB2AC;}
	.st1{fill:#42210B;}
</style>
<title>Artboard 1 copy 2</title>
<path class="st0" d="M55.5,32.4c-1.2,0.1-1.5,1.6-3.2,4c-1.9,2.7-3.6,3.6-3.2,4.8c0.1,0.4,0.4,0.7,0.8,0.8c0.5,0.1,1.3,0,4-3.2
	c2.5-2.9,3.7-4.5,3.2-5.5C56.8,32.7,56.2,32.4,55.5,32.4z"/>
<path class="st0" d="M81.7,33.7c1.2-0.1,1.7,1.3,3.8,3.3c2.4,2.3,4.2,2.9,4,4.1c-0.1,0.4-0.3,0.7-0.6,0.9c-0.4,0.2-1.3,0.2-4.5-2.4
	c-2.9-2.4-4.5-3.8-4.1-4.9C80.5,34.2,81.1,33.8,81.7,33.7z"/>
<path class="st1" d="M286.7,33.2c0.4-1.1,0-2.4-1-3c-0.6-0.3-1.4-0.3-2,0c1.2-0.9,2.8-0.9,3.9,0c0.6,0.5,0.9,1.2,1,2
	c1-1,1.1-1.6,1-2c0,0-0.1-0.3-1-1l0,0c0.8,0.1,1.5,0.5,2,1c0.3,0.6,0.3,1.3,0,1.9v0.1C290.1,33.3,288.2,33.3,286.7,33.2z"/>
<image style="overflow:visible;" width="1141" height="1439" xlink:href="51C4C7C2.png"  transform="matrix(6.760467e-02 0 0 6.760467e-02 86.872 136.7255)">
</image>
<image style="overflow:visible;" width="2369" height="1908" xlink:href="51C4C7C6.png"  transform="matrix(3.124334e-02 0 0 3.124334e-02 201.832 169.5782)">
</image>
<path d="M88.9,35.6L112,22.7L68.9,2.8L26.4,26.3L40,32.4c-0.5,0.2-0.8,0.5-0.9,1.2c-0.2,1.1,0,2,0,2L39,39c0,0-1.1,0.5-1.5,2
	c-0.5,1.5,0.8,29.9,0,31.7s-0.1,1.9-0.1,1.9l0.8-0.9l0.2,0.9h0.7V69c0,0,0.7,5,0.6,5.5c0.1-0.4,0.9-2.6,0.7-5.4
	c-0.2-3.2,1.2,5.5,1.2,5.5h1.7c0,0-0.8-5.7-0.9-6.2C42.2,68,43.6,73.3,44,74c0.5,0.7-1.4-16.9-1.4-19.4c0-2.5,0.2-11.9-0.2-13.6
	c-0.5-1.7-0.5-1.7-0.5-1.7l-0.4-3.8c0,0,1-0.5,0.9-1.3c0-0.3-0.2-0.6-0.4-1l6.1,2.7c0,0-1.4,6.5-1.3,8.6c0.1,2,6.4-5.3,15.6-4.8
	c9.2,0.5,10.2,0.5,16.1,0.5c5.8,0,10.9,5.3,11.4,5.6c0.5,0.3,0.5-2.3,0-5C89.5,38.2,88.9,35.6,88.9,35.6z"/>
<path d="M199.9,34.1L223,21.2L179.9,1.3l-42.5,23.5l13.6,6.1c-0.5,0.2-0.8,0.5-0.9,1.2c-0.2,1.1,0,2,0,2l-0.1,3.4c0,0-1.1,0.5-1.5,2
	c-0.5,1.5,0.8,29.9,0,31.7s-0.1,1.9-0.1,1.9l0.8-0.9l0.2,0.9h0.7v-5.6c0,0,0.7,5,0.6,5.5c0.1-0.4,0.9-2.6,0.7-5.4
	c-0.2-3.2,1.2,5.5,1.2,5.5h1.7c0,0-0.8-5.7-0.9-6.2c-0.1-0.5,1.3,4.8,1.8,5.6c0.5,0.7-1.4-16.9-1.4-19.4c0-2.5,0.2-11.9-0.2-13.6
	c-0.5-1.7-0.5-1.7-0.5-1.7l-0.4-3.8c0,0,1-0.5,0.9-1.3c0-0.3-0.2-0.6-0.4-1l6.1,2.7c0,0-1.4,6.5-1.3,8.6c0.1,2,6.4-5.3,15.6-4.8
	c9.2,0.5,10.2,0.5,16.1,0.5c5.8,0,10.9,5.3,11.4,5.6c0.5,0.3,0.5-2.3,0-5C200.5,36.7,199.9,34.1,199.9,34.1z"/>
<path d="M311.9,34.1L335,21.2L291.9,1.3l-42.5,23.5l13.6,6.1c-0.5,0.2-0.8,0.5-0.9,1.2c-0.2,1.1,0,2,0,2l-0.1,3.4c0,0-1.1,0.5-1.5,2
	c-0.5,1.5,0.8,29.9,0,31.7s-0.1,1.9-0.1,1.9l0.8-0.9l0.2,0.9h0.7v-5.6c0,0,0.7,5,0.6,5.5c0.1-0.4,0.9-2.6,0.7-5.4
	c-0.2-3.2,1.2,5.5,1.2,5.5h1.7c0,0-0.8-5.7-0.9-6.2c-0.1-0.5,1.3,4.8,1.8,5.6s-1.4-16.9-1.4-19.4c0-2.5,0.2-11.9-0.2-13.6
	c-0.5-1.7-0.5-1.7-0.5-1.7l-0.4-3.8c0,0,1-0.5,0.9-1.3c0-0.3-0.2-0.6-0.4-1l6.1,2.7c0,0-1.4,6.5-1.3,8.6c0.1,2,6.4-5.3,15.6-4.8
	c9.2,0.5,10.2,0.5,16.1,0.5s10.9,5.3,11.4,5.6c0.5,0.3,0.5-2.3,0-5C312.5,36.7,311.9,34.1,311.9,34.1z"/>
</svg>
