<svg id="Layer_1" data-name="Layer 1" xmlns="http://www.w3.org/2000/svg" xmlns:xlink="http://www.w3.org/1999/xlink" viewBox="0 0 1153 647"><defs><style>.cls-1{fill:none;}.cls-2{clip-path:url(#clip-path);}.cls-3{fill:#66b2ce;}.cls-4,.cls-5{fill:#317eac;stroke:#66b2ce;stroke-miterlimit:10;}.cls-4{stroke-linecap:round;stroke-width:6px;}</style><clipPath id="clip-path"><rect class="cls-1" x="-5" y="-1" width="1158" height="650"/></clipPath></defs><title>Artboard 5 copy 4</title><g class="cls-2"><rect class="cls-3" x="-5" y="-1" width="1158" height="650"/><path class="cls-4" d="M951.61,734.33l-700.29.2c-15.27-27.74-21.17-52.4-23.36-71.4C213.36,536.82,336.09,432.39,353,418c18.58-15.81.49-33,61-80,79-61.41,91.65-92.67,98-102,23.8-35,27.54-50.66,57-78,13.29-12.33,40.4,7,67.31,5.17,27.55-1.83,54.38,10,70,30.58l210.15,204"/><path class="cls-5" d="M653.86,475c34-14.58,55.06-16.11,91.76-39.38a175.24,175.24,0,0,0,31.2-25.26C821.85,328.48,862.47,300.22,892,290c8.24-2.85,28.48-8.75,58-21,43.7-18.13,52.26-27.17,64-30,70.18-16.9,253.61,188.12,205.87,377.83-15.19,60.37-43,112.94-61.27,113.23-176.78,2.8-367.23,99.46-519.41,8.23A475.78,475.78,0,0,1,555.5,674.5"/><path class="cls-5" d="M543.62,652.74c6.93,6.36,12.5,11.58,15.88,14.76-407.15-9-576.6-17.06-580.72-23.8A155.91,155.91,0,0,0-35,622.57c-2.67-3.45-5.34-6.9-8-11-7.36-11.25,1.5-27,4.12-32.39C-18.82,537.91,60,488,131,417c22-22,20.59-23,47-44,2.49-2,30.2-12.71,40.41-9.31C261.51,378,250.94,447.58,300,491a107.07,107.07,0,0,0,15.08,10.69c11.7,7.86,21.93,13.75,29.42,17.81"/></g></svg>