<svg id="Layer_1" data-name="Layer 1" xmlns="http://www.w3.org/2000/svg" xmlns:xlink="http://www.w3.org/1999/xlink" viewBox="0 0 1327.56 1334.5"><defs><style>.cls-1{fill:url(#linear-gradient);}.cls-2,.cls-3,.cls-4{fill:#317eac;}.cls-2,.cls-3{stroke:#66b2ce;stroke-miterlimit:10;}.cls-2{stroke-linecap:round;}</style><linearGradient id="linear-gradient" x1="652.36" x2="652.36" y2="780" gradientUnits="userSpaceOnUse"><stop offset="0" stop-color="#fff"/><stop offset="1" stop-color="#66b2ce"/></linearGradient></defs><title>mountain_bkg</title><rect class="cls-1" x="12.36" width="1280" height="780"/><path class="cls-2" d="M994.61,861.33l-700.29.2c-15.27-27.74-21.17-52.4-23.36-71.4C256.36,663.82,379.09,559.39,396,545c18.58-15.81.49-33,61-80,79-61.41,91.65-92.67,98-102,23.8-35,27.54-50.66,57-78,13.29-12.33,40.4,7,67.31,5.17,27.55-1.83,54.38,10,70,30.58l210.15,204" transform="translate(10.36 -2)"/><path class="cls-2" d="M579.62,840.74c6.93,6.36,12.5,11.58,15.88,14.76-407.15-9-576.6-17.06-580.72-23.8A156.33,156.33,0,0,0,1,810.57c-2.67-3.45-5.34-6.9-8-11-7.36-11.25,1.5-27,4.12-32.39C17.18,725.91,96,676,167,605c22-22,20.59-23,47-44,2.49-2,30.2-12.71,40.41-9.31C297.51,566,286.94,635.58,336,679a106.81,106.81,0,0,0,15.08,10.69c11.7,7.86,21.93,13.75,29.42,17.81" transform="translate(10.36 -2)"/><path class="cls-3" d="M742.86,603c34-14.58,55.06-16.11,91.76-39.38a175.44,175.44,0,0,0,31.2-25.26C910.85,456.48,951.47,428.22,981,418c8.24-2.85,28.48-8.75,58-21,43.7-18.13,52.26-27.17,64-30,70.18-16.9,253.61,188.12,205.87,377.83-15.19,60.37-43,112.94-61.27,113.23-176.78,2.8-367.23,99.46-519.41,8.23A475.63,475.63,0,0,1,644.5,802.5" transform="translate(10.36 -2)"/><rect class="cls-4" x="5.86" y="779.5" width="1290" height="555"/></svg>