<?xml version="1.0" encoding="utf-8"?>
<!-- Generator: Adobe Illustrator 22.0.1, SVG Export Plug-In . SVG Version: 6.00 Build 0)  -->
<svg version="1.1" id="Layer_1" xmlns="http://www.w3.org/2000/svg" xmlns:xlink="http://www.w3.org/1999/xlink" x="0px" y="0px"
	 viewBox="0 0 100 87.8" style="enable-background:new 0 0 100 87.8;" xml:space="preserve">
<g>
	<path d="M90.3,0.9H9.8L0,23.1c0,9.9,10,9,10.5,9v55.1h80.4v-55c0,0,0.1,0,0.1,0c5,0,9.1-4.1,9.1-9.1L90.3,0.9z M88.5,3.5l8.3,18.6
		H84.3L78.8,3.5H88.5z M51.8,3.5h9.9l2.8,18.6H51.8V3.5z M64.5,23.9c-0.4,3.1-3.1,5.5-6.4,5.5s-5.9-2.4-6.4-5.5
		C51.8,23.9,64.5,23.9,64.5,23.9z M24.9,3.5h9.9L32,22.2H19.4L24.9,3.5z M31.8,23.9c-0.4,3.1-3.1,5.5-6.4,5.5
		c-3.2,0-5.9-2.4-6.4-5.5C19.1,23.9,31.8,23.9,31.8,23.9z M82.8,83.6H56v-47h26.8V83.6z M87.3,83.6h-2.7V34.8H54.2v48.8H14V30.7
		c1.4-0.9,2.5-2.2,3.3-3.7c1.5,3.1,4.6,5.2,8.2,5.2s6.7-2.1,8.2-5.2c1.5,3.1,4.6,5.2,8.2,5.2c3.6,0,6.7-2.1,8.2-5.2
		c1.5,3.1,4.6,5.2,8.2,5.2c3.6,0,6.7-2.1,8.2-5.2c1.5,3.1,4.6,5.2,8.2,5.2s6.7-2.1,8.2-5.2c0.9,2,2.6,3.5,4.6,4.4L87.3,83.6
		L87.3,83.6z M90.9,29.5c-3.2,0-5.9-2.4-6.4-5.5h12.7C96.9,27.1,94.2,29.5,90.9,29.5z M15.9,73.9h35.6V34.8H15.9V73.9z M17.7,36.5
		h32.1v9.2h-2.5v-5.1h-6.7v5.1h-3.7v-5.1h-6.7v5.1h-3.7v-5.1h-6.7v5.1h-2.2C17.7,45.7,17.7,36.5,17.7,36.5z M17.7,47.5h32.1v8.3h-8
		v-5.1h-6.7v5.1h-3.9v-5.1h-6.7v5.1h-6.9C17.7,55.8,17.7,47.5,17.7,47.5z M17.7,57.5h32.1v8.3h-2.7v-5h-6.7v5h-3.7v-5h-6.7v5h-3.7
		v-5h-6.7v5h-2L17.7,57.5L17.7,57.5z M17.7,67.6h32.1v4.5H17.7V67.6z M80.6,58.6l-0.9-10.3l-6.4,0.6l-3.9-6.3l-4.1,7l-7.1,0.6
		l0.9,10.3L80.6,58.6z M69.5,43.7l3.2,5.2l-6.6,0.6L69.5,43.7z M78.7,49.6l0.7,8l-19.1,1.7l-0.7-8L78.7,49.6z M62.3,63.9
		c0,1-0.8,1.8-1.8,1.8s-1.8-0.8-1.8-1.8c0-1,0.8-1.8,1.8-1.8S62.3,62.9,62.3,63.9z"/>
</g>
</svg>
