<svg id="Layer_1" data-name="Layer 1" xmlns="http://www.w3.org/2000/svg" viewBox="0 0 223 546"><defs><style>.cls-1{fill:#ffd5ab;}.cls-2{fill:#42210b;}.cls-3,.cls-5,.cls-6{fill:none;stroke-linecap:round;stroke-miterlimit:10;}.cls-3{stroke:#000;stroke-width:3px;}.cls-4{fill:#fff;}.cls-5,.cls-6{stroke:#c69c6d;}.cls-6{stroke-width:2px;}</style></defs><title>Artboard 1</title><path class="cls-1" d="M149.07,201.14a67.78,67.78,0,0,1,18,18.51c19.29,29.8,17.89,82.6,14.95,96-.32,1.47-1.69,7.16,1.26,11.26a9.62,9.62,0,0,0,6.51,3.83,10.62,10.62,0,0,0,6.59-2.26c5.47-4.06,9.84-19.82,7-49.82-1.2-12.51-2.32-24.21-7.46-39.46-3.24-9.61-8.41-25.13-20.82-39.87A95.37,95.37,0,0,0,152.73,180Z"/><path class="cls-1" d="M66.73,383l3.44,119.93a10.82,10.82,0,0,0,21.51,0L90.73,385Z"/><path class="cls-1" d="M123.73,384l4.56,118.93a10.82,10.82,0,0,0,21.51,0L148.73,386Z"/><path class="cls-2" d="M65.63,31.7a23.58,23.58,0,0,0-9.55,1.74c-5.91,2.58-7.9,7.35-9,10A189.79,189.79,0,0,0,36.38,81.32c-3,20.1-2.46,18.59-3.65,24.56-3.3,16.44-5.61,18.73-6,27-.47,9.85,2.08,22.31,8,29.9,23.35,30,125.68,26.6,145,0,4.1-5.65,6.19-14.72,7-18.23a68.43,68.43,0,0,0,0-30.63c-2.31-21-4.91-37.69-6.5-48.26-.83-5.48-2.14-14.6-9.55-24.81-2.19-3-17.25-23.79-48.94-26.55C88.95,11.44,67.11,30.37,65.63,31.7Z"/><path class="cls-1" d="M98.13,160.76l-10.46,15.4c2,33,12,56.48,21.06,56.84s21-22.37,25.54-55.65l-12.18-16.23Z"/><path class="cls-1" d="M88,32C55.92,44.17,51.84,86.59,51,95.27c-.95,9.87-3,32.15,11.94,51.93,2.13,2.82,15.11,19.44,38.2,23.87,5.51,1.06,17.64,3.22,31-2.39,12.48-5.22,19.24-14.33,22.68-19.1,15.72-21.78,16.83-52,7.76-75.8-3.44-9-10.38-27.26-29.84-37.6C129.23,34.3,109,24,88,32Z"/><path class="cls-2" d="M105.73,38c-2,6.83-5.83,15.59-14,21-10.08,6.67-18.91,3.05-28.05,9.52C58.75,72,53.18,78.81,51,93.48c-1.25-7-3.23-23.39,4.53-38.48,8-15.48,22.32-22.11,32.3-26.7a71.49,71.49,0,0,1,12.38-4.51C128,17.45,158.57,51.29,162.73,56c-5.67,3.19-12.75,5.86-18.45,3.16-7-3.31-9.48-13.57-10.55-13.16s3.65,10.45.31,13.5c-3.51,3.2-13.84-3.21-14.31-3.5C111.76,51,107.75,43.32,105.73,38Z"/><circle cx="74.05" cy="86.47" r="8.94"/><circle cx="146.97" cy="87.53" r="8.94"/><path class="cls-3" d="M95.63,114.4a17.66,17.66,0,0,0,27.48,0"/><path d="M149.58,80.58c1.16-.16,2.51-.55,3-1.59s.06-2.1.27-2.16,1.21,1.32,1,2.75c-.31,1.88-2.64,3.37-3.64,2.84C150,82.3,149.59,81.95,149.58,80.58Z"/><path d="M151.47,83c1.16-.16,2.51-.55,3-1.59s.06-2.1.27-2.16,1.21,1.32,1,2.75c-.31,1.88-2.64,3.37-3.64,2.84C151.91,84.72,151.48,84.37,151.47,83Z"/><path d="M70.5,80.2c-1.16-.16-2.51-.55-3-1.59s-.06-2.1-.27-2.16-1.21,1.32-1,2.75c.31,1.88,2.64,3.37,3.64,2.84C70.06,81.92,70.49,81.57,70.5,80.2Z"/><path d="M68.61,82.62c-1.16-.16-2.51-.55-3-1.59s-.06-2.1-.27-2.16-1.21,1.32-1,2.75C64.64,83.5,67,85,68,84.45,68.17,84.34,68.6,84,68.61,82.62Z"/><circle class="cls-4" cx="148.69" cy="83.06" r="1.72"/><circle class="cls-4" cx="75.77" cy="82.68" r="1.72"/><path class="cls-1" d="M65.86,206.58a67.78,67.78,0,0,0-16.77,19.67c-17.26,31-12.35,83.61-8.52,96.82.42,1.44,2.16,7-.51,11.32a9.62,9.62,0,0,1-6.24,4.26,10.62,10.62,0,0,1-6.73-1.82c-5.72-3.68-11.14-19.12-10.26-49.25.36-12.56.7-24.31,4.82-39.87,2.51-9.49,6.67-25.43,18.12-41.17a98.28,98.28,0,0,1,24-23.21Z"/><path d="M152.73,180q-2.42-.54-5-1a123.5,123.5,0,0,0-13.46-1.65L110.73,221,87.67,176.16l-23.9,7.17L48.73,426c17.86.61,36.91.69,57,0,20.52-.7,39.89-2.12,58-4-.35-71.42-3.26-144.65-9.15-219.56Q153.69,191.19,152.73,180Z"/><path class="cls-5" d="M104.63,92a5.1,5.1,0,0,0,8.1,0"/><path class="cls-6" d="M78.88,72a17.21,17.21,0,0,0-8.82-.66,17.22,17.22,0,0,0-8.23,3.29"/><path class="cls-6" d="M159.45,77a19.61,19.61,0,0,0-16.9-3.49"/></svg>