<?xml version="1.0" encoding="utf-8"?>
<!-- Generator: Adobe Illustrator 18.0.0, SVG Export Plug-In . SVG Version: 6.00 Build 0)  -->
<!DOCTYPE svg PUBLIC "-//W3C//DTD SVG 1.1//EN" "http://www.w3.org/Graphics/SVG/1.1/DTD/svg11.dtd">
<svg version="1.1" id="Слой_2" xmlns="http://www.w3.org/2000/svg" xmlns:xlink="http://www.w3.org/1999/xlink" x="0px" y="0px"
	 viewBox="264 0 1433 1200" enable-background="new 264 0 1433 1200" xml:space="preserve">
<path fill="#000000"    d="M1306.4,547.5L1690.8,333L975.6,2.3L269.4,393.3
	l226,101.2c-8,3.5-13,8.8-15.5,19.8c-4,17.6,0,33.3,0,33.3l-1.7,56.9c0,0-17.9,7.9-25.7,33.3c-7.8,25.4,13.7,496.2,0,525.7
	c-13.7,29.5-1.8,31.3-1.8,31.3l13.6-15.7l4,15.7h11.4v-92.2c0,0,11.3,82.2,10.3,91.5c2.1-6.4,15-43.5,11.6-89.5
	c-4-52.9,19.6,90.5,19.6,90.5h27.5c0,0-13.7-94.4-15.7-102.2c-2-7.9,21.6,80.5,29.4,92.2c7.8,11.7-23.6-280.5-23.6-321.7
	c0-41.2,4-198.1-4-225.6c-7.9-27.5-7.9-27.5-7.9-27.5l-5.9-62.8c0,0,16.7-8,15.7-21.6c-0.3-4.7-3.2-10.4-6.8-16.1l101.6,45.5
	c0,0-23.6,108.6-22.2,142.6c1.3,34,105.9-87.7,258.9-79.1c153,8.6,170,8.5,266.8,8.5s181.8,87.7,189.6,92.9c7.9,5.2,7.9-38,0-83.7
	C1316.8,590.7,1306.4,547.5,1306.4,547.5z"/>
</svg>
